<?xml version="1.0" standalone="no"?>
<!DOCTYPE svg PUBLIC "-//W3C//DTD SVG 20010904//EN"
 "http://www.w3.org/TR/2001/REC-SVG-20010904/DTD/svg10.dtd">
<svg version="1.0" xmlns="http://www.w3.org/2000/svg"
 width="545.000000pt" height="557.000000pt" viewBox="0 0 545.000000 557.000000"
 preserveAspectRatio="xMidYMid meet">

<g transform="translate(0.000000,557.000000) scale(0.100000,-0.100000)"
fill="#000000" stroke="none">
<path d="M1555 4481 c-94 -23 -172 -87 -217 -179 l-33 -67 0 -615 c0 -611 0
-615 22 -662 29 -62 86 -124 148 -159 27 -16 46 -29 40 -29 -5 1 -21 7 -35 15
-31 18 -48 19 -32 3 24 -24 3 -133 -27 -141 -9 -3 0 -6 19 -7 34 -2 34 -3 -10
-11 -25 -4 -72 -8 -105 -8 -69 -2 -127 -25 -167 -67 -25 -28 -337 -526 -381
-609 -32 -60 -29 -148 6 -208 47 -79 113 -116 216 -119 50 -1 51 -2 14 -5
l-42 -4 32 -28 c50 -43 116 -77 187 -96 70 -20 22 -19 2005 -40 745 -9 954 -1
1073 37 144 47 211 115 248 253 40 146 -66 407 -289 712 -49 68 -95 157 -101
198 -7 44 10 126 44 220 24 66 25 70 47 170 21 96 25 863 5 970 -29 152 -60
220 -140 306 -50 54 -155 119 -202 126 -8 1 -42 13 -75 27 l-60 26 -1080 -1
c-594 -1 -1093 -4 -1110 -8z m2366 -78 l24 -26 -32 23 c-34 25 -39 30 -25 30
5 0 19 -12 33 -27z m40 -50 c13 -16 12 -17 -3 -4 -17 13 -22 21 -14 21 2 0 10
-8 17 -17z m-206 -83 c65 -40 65 -39 65 -647 0 -528 -1 -548 -20 -588 -40 -82
50 -76 -1157 -73 l-1073 3 -32 33 -33 32 0 594 0 594 25 27 c14 15 34 31 45
35 11 5 499 9 1084 9 1050 1 1064 1 1096 -19z m-754 -2404 c33 -60 59 -111 59
-113 0 -2 -225 -3 -500 -3 -275 0 -500 2 -500 4 0 5 96 161 122 199 l20 27
370 -2 371 -3 58 -109z"/>
</g>
</svg>
