<?xml version="1.0" standalone="no"?>
<!DOCTYPE svg PUBLIC "-//W3C//DTD SVG 20010904//EN"
 "http://www.w3.org/TR/2001/REC-SVG-20010904/DTD/svg10.dtd">
<svg version="1.0" xmlns="http://www.w3.org/2000/svg"
 width="900.000000pt" height="900.000000pt" viewBox="0 0 900.000000 900.000000"
 preserveAspectRatio="xMidYMid meet">

<g transform="translate(0.000000,900.000000) scale(0.100000,-0.100000)"
fill="#000000" stroke="none">
<path d="M4245 8990 c-795 -50 -1555 -303 -2215 -737 -1148 -756 -1885 -1990
-2009 -3363 -51 -558 8 -1122 174 -1677 271 -911 841 -1726 1610 -2303 549
-412 1196 -699 1856 -825 500 -95 980 -106 1465 -35 1276 187 2397 894 3112
1962 342 510 586 1114 686 1700 64 368 85 685 68 984 -31 510 -117 931 -283
1376 -324 870 -917 1624 -1689 2147 -626 424 -1324 678 -2080 755 -182 19
-525 27 -695 16z m685 -724 c711 -82 1367 -356 1940 -810 138 -110 428 -394
537 -526 500 -608 786 -1298 863 -2080 16 -164 14 -557 -4 -726 -110 -1038
-604 -1942 -1416 -2592 -199 -159 -493 -343 -715 -447 -211 -99 -497 -207
-511 -192 -3 3 -6 147 -5 319 1 360 -10 540 -39 653 -45 170 -103 270 -227
392 l-93 92 32 5 c18 3 98 15 177 26 247 37 527 113 745 204 431 179 754 517
913 956 92 255 143 576 143 912 0 460 -107 781 -373 1115 l-65 82 24 76 c71
223 81 493 28 750 -21 104 -84 292 -101 307 -11 9 -49 13 -127 12 -90 -1 -128
-6 -201 -28 -218 -66 -432 -165 -665 -306 -74 -45 -147 -90 -162 -98 -25 -16
-34 -15 -160 16 -316 77 -579 106 -948 106 -363 0 -626 -29 -938 -104 -68 -17
-130 -30 -138 -30 -8 0 -76 39 -151 87 -259 163 -543 294 -726 334 -117 26
-303 31 -317 9 -18 -28 -80 -231 -102 -333 -19 -88 -22 -131 -22 -312 0 -206
1 -212 33 -325 50 -177 52 -156 -25 -251 -169 -210 -276 -435 -334 -704 -42
-192 -39 -637 6 -900 20 -115 75 -329 109 -425 36 -100 122 -267 184 -360 99
-148 280 -326 439 -433 251 -168 655 -304 1090 -366 79 -12 145 -21 147 -21 3
0 -40 -44 -93 -97 -81 -81 -106 -114 -144 -188 -97 -190 -108 -269 -108 -782
l0 -403 -24 0 c-13 0 -70 16 -126 36 -493 171 -900 407 -1281 742 -656 578
-1087 1351 -1233 2212 -70 413 -67 875 10 1312 175 998 770 1902 1632 2477
540 361 1146 569 1809 621 148 12 561 4 713 -14z"/>
</g>
</svg>
