<?xml version="1.0" standalone="no"?>
<!DOCTYPE svg PUBLIC "-//W3C//DTD SVG 20010904//EN"
 "http://www.w3.org/TR/2001/REC-SVG-20010904/DTD/svg10.dtd">
<svg version="1.0" xmlns="http://www.w3.org/2000/svg"
 width="600.000000pt" height="600.000000pt" viewBox="0 0 600.000000 600.000000"
 preserveAspectRatio="xMidYMid meet">

<g transform="translate(0.000000,600.000000) scale(0.100000,-0.100000)"
fill="#000000" stroke="none">
<path d="M675 5834 c-139 -30 -281 -117 -377 -232 -54 -65 -115 -193 -133
-277 -22 -105 -22 -4545 0 -4650 40 -192 179 -368 360 -455 156 -76 -25 -71
2510 -68 l2270 3 70 23 c176 59 327 187 402 342 23 47 47 110 55 140 11 45 13
461 13 2345 l0 2290 -23 75 c-35 112 -86 196 -171 281 -83 83 -165 134 -276
171 l-70 23 -2280 2 c-1983 1 -2289 0 -2350 -13z m4610 -449 c47 -24 66 -41
90 -79 l30 -49 3 -2231 c1 -1227 0 -2245 -3 -2262 -10 -55 -61 -120 -117 -148
l-52 -26 -2236 0 -2236 0 -55 28 c-35 18 -64 42 -84 70 l-30 44 -3 2252 c-2
2460 -6 2284 54 2355 32 38 71 59 127 70 23 5 1034 8 2247 7 l2205 -1 60 -30z"/>
<path d="M1436 4899 c-61 -15 -156 -70 -207 -121 -28 -28 -64 -80 -86 -125
-37 -76 -38 -79 -38 -192 0 -110 2 -120 32 -184 36 -76 116 -166 181 -204 178
-105 398 -76 548 72 86 85 125 170 132 285 8 139 -30 242 -124 340 -60 63
-130 105 -208 126 -57 15 -171 17 -230 3z"/>
<path d="M3785 3690 c-104 -14 -187 -39 -293 -91 -80 -39 -119 -65 -177 -120
-41 -39 -87 -91 -102 -115 -15 -24 -31 -44 -35 -44 -5 0 -8 74 -8 165 l0 165
-375 0 -375 0 2 -1252 3 -1253 373 -3 372 -2 0 642 c1 646 6 785 36 901 63
247 236 370 497 354 188 -12 293 -103 349 -304 22 -76 22 -95 28 -833 l5 -755
380 0 380 0 3 680 c4 893 -9 1107 -75 1320 -105 333 -321 502 -697 544 -106
12 -201 12 -291 1z"/>
<path d="M1152 2398 l3 -1253 379 -3 c297 -2 381 1 388 10 4 7 8 572 8 1256
l0 1242 -390 0 -390 0 2 -1252z"/>
</g>
</svg>
